<svg id="Layer_1" data-name="Layer 1" xmlns="http://www.w3.org/2000/svg" viewBox="0 0 185.25 20.64"><defs><style>.cls-1{fill:#ce0000;}</style></defs><title>Untitled-2</title><path class="cls-1" d="M37.89,5.58a10.7,10.7,0,0,0-2-.25c-1.55,0-2.44.6-2.44,2V8.58H37v3.2H33.4v7.3c1,.09,2.08.21,3,.35v2.69H25.25V19.43c.89-.14,2-.26,3-.35v-7.3H25V8.58h3.21V7.43C28.25,3.82,30.4,2,35.32,2a18.93,18.93,0,0,1,2.88.21Z" transform="translate(-2 -1.99)"/><path class="cls-1" d="M51,5.58A11.31,11.31,0,0,0,49,5.33c-1.57,0-2.45.6-2.45,2V8.58h3.55v3.2H46.51v7.3c1,.09,2.08.21,3,.35v2.69H38.38V19.43c.9-.14,1.93-.26,3-.35v-7.3h-3.2V8.58h3.2V7.43C41.38,3.82,43.57,2,48.46,2a18.89,18.89,0,0,1,2.89.21Z" transform="translate(-2 -1.99)"/><path class="cls-1" d="M56.83,7.18c-1.73,0-3.16-1.09-3.16-2.45s1.43-2.46,3.16-2.46S60,3.35,60,4.72s-1.42,2.45-3.18,2.45m-5.58,15v-2.7c.9-.14,1.94-.26,3-.35V11.72c-.79-.1-2-.22-3-.25V8.82a65.5,65.5,0,0,1,8.15-.24v10.5c.94.09,2,.21,2.73.35v2.69Z" transform="translate(-2 -1.99)"/><path class="cls-1" d="M70.42,22.39C65,22.39,62,20.17,62,15.78c0-4.08,2.7-7.46,9.17-7.46a18.2,18.2,0,0,1,3.87.4v4.64H71.71c-.13-.55-.22-1.06-.31-1.52a3,3,0,0,0-.93-.09c-1.8,0-3.09,1.28-3.09,3.5s1.17,3.52,4.2,3.52a10.12,10.12,0,0,0,3.24-.54l.35,3.59a20.52,20.52,0,0,1-4.76.53" transform="translate(-2 -1.99)"/><path class="cls-1" d="M84.19,11.29a2.54,2.54,0,0,0-2.7,2.32H86.6a2.13,2.13,0,0,0-2.4-2.32m7.34,5.08H81.44c0,1.81,1.4,2.84,4.19,2.84a14.9,14.9,0,0,0,5-.85l.47,3.14a21,21,0,0,1-6.26.94c-5.59,0-8.59-2.19-8.59-6.94,0-4.16,2.9-7.25,8.13-7.25s7.35,2.75,7.35,6.32a12,12,0,0,1-.15,1.81" transform="translate(-2 -1.99)"/><path class="cls-1" d="M8,12.45c0,3.18,2,5.63,5.2,5.63s5.2-2.44,5.2-5.63c0-3-1.82-5.7-5.2-5.7S8,9.49,8,12.45m16.38,0c0,6.16-5,9.86-11.17,9.86S2,18.64,2,12.48s5-10,11.18-10,11.17,3.92,11.17,10" transform="translate(-2 -1.99)"/><path class="cls-1" d="M105.74,11.41a3.23,3.23,0,0,0-.86.06v7.74a2.44,2.44,0,0,0,.75,0c2.41,0,4.59-1.39,4.59-3.93,0-2.1-.87-3.91-4.48-3.91m-.8,10.82c-2.09,0-4.45-.12-5.18-.12H97.25V19.93a16.63,16.63,0,0,1,2.5-.27V11.08a24.51,24.51,0,0,1-2.5-.21V8.57h2.36c1.61,0,3.3-.06,6.16-.06,5.77,0,9.79,1.63,9.79,6.52,0,4.61-4.23,7.2-10.64,7.2" transform="translate(-2 -1.99)"/><path class="cls-1" d="M116.25,22.12V19.91a17,17,0,0,1,2.47-.27V11.09a23.53,23.53,0,0,1-2.47-.21V8.57h15.13v3.7h-4a6.18,6.18,0,0,1-.19-1h-3.36V14h3.09a3.33,3.33,0,0,1,.19-.65h2.95V17h-2.95a2.65,2.65,0,0,1-.19-.57h-3.09V19.5h3.42c.08-.37.17-.87.26-1.23h4v3.85Z" transform="translate(-2 -1.99)"/><path class="cls-1" d="M142.5,11.41h-.94V15.2a5.7,5.7,0,0,0,.83,0c1.48,0,2.64-.68,2.64-2,0-1-.55-1.91-2.54-1.91m-.33,6.56h-.6v1.7a17.43,17.43,0,0,1,2.49.27V22h-10V19.93a16.93,16.93,0,0,1,2.46-.27V11.07a19,19,0,0,1-2.46-.21V8.57h2.42c.94,0,3.25-.09,5.39-.09C147.15,8.48,150,10,150,13c0,2.62-2.54,5-7.83,5" transform="translate(-2 -1.99)"/><path class="cls-1" d="M182.16,13.06c-.1-.44-.22-1.14-.28-1.63h-2v8.23a16.26,16.26,0,0,1,2.42.27v2.19H172.25v-2.2a17,17,0,0,1,2.48-.27V11.43h-2.06a13.42,13.42,0,0,1-.28,1.63H169V8.57h16.54V13Z" transform="translate(-2 -1.99)"/><path class="cls-1" d="M185.53,20.82h.18c.24,0,.41-.09.41-.27s-.11-.27-.41-.27h-.18Zm0,.83h-.28V20.11a3.64,3.64,0,0,1,.48,0,.86.86,0,0,1,.52.13.37.37,0,0,1,.14.31.36.36,0,0,1-.31.36h0c.13,0,.22.14.25.37a3.33,3.33,0,0,0,.11.37h-.29a1.19,1.19,0,0,1-.09-.39.34.34,0,0,0-.38-.29h-.17Zm.26-2a1.18,1.18,0,0,0-1.17,1.16A1.2,1.2,0,0,0,185.81,22a1.17,1.17,0,1,0,.22-2.33h-.24Zm0-.22a1.4,1.4,0,0,1,1.46,1.34s0,.05,0,.08a1.38,1.38,0,0,1-1.37,1.39h-.09a1.42,1.42,0,0,1-1.48-1.36v0a1.45,1.45,0,0,1,1.48-1.38Z" transform="translate(-2 -1.99)"/><path class="cls-1" d="M155.88,15.34a3.77,3.77,0,1,0,7.53,0,3.77,3.77,0,1,0-7.53,0m12.58,0c0,4.56-3.78,7.29-8.82,7.29s-8.8-2.73-8.8-7.29S154.63,8,159.64,8s8.82,2.9,8.82,7.36" transform="translate(-2 -1.99)"/></svg>